<svg id="Layer_1" data-name="Layer 1" xmlns="http://www.w3.org/2000/svg" viewBox="0 0 300 100"><defs><style>.cls-1{font-size:107.82px;font-family:AKbalthomKhmerNew, AKbalthom KhmerNew;}.cls-1,.cls-2{fill:#fff;}</style></defs><text class="cls-1" transform="translate(95.13 96.6)">data</text><path class="cls-2" d="M92.42,90.21l-2.55-2.55L53.81,51.59,51.1,54.31l-1.81,1.8L80.83,87.66l2.56,2.55H57.78l-2.56-2.55L36.48,68.92l-1.8-1.81,1.8-1.81,9.2-9.19,1.8-1.8,1.81-1.81L52,49.79,53.81,48,89.87,11.92l2.55-2.56L95,6.81,98.81,3H55.13L51.3,6.81,48.75,9.36l-2.56,2.56L34.44,23.67l-2.55,2.55V3H1V42.47l7.32,7.32L1,57.11V96.6H31.89V77l-3.84-3.83L25.5,70.58V90.21H7.39V59.75L11,56.11l1.81-1.81,2.71-2.71,1.8-1.8L19.16,48l9.19-9.19L26.55,37l-2.71-2.71-9.2,9.19-1.8,1.81L11,43.46,7.39,39.82V9.36H25.5v23l.14.15,2.71,2.71L30.16,37l1.73,1.73.08.08L41.16,48,43,49.79l-1.8,1.8L32,60.79l-.08.08-1.73,1.72-1.81-1.8-9.19-9.2L17.35,53.4l-2.71,2.71,9.2,9.19L25.5,67l.14.15,2.41,2.41,3.84,3.83,2.55,2.56L46.19,87.66l2.56,2.55,2.55,2.56,3.83,3.83H98.81L95,92.77ZM36.48,34.27l-1.8-1.8,1.8-1.81L55.22,11.92l2.56-2.56H83.39l-2.56,2.56L49.29,43.46l-1.81,1.81-1.8-1.81Z"/><polygon class="cls-2" points="7.39 50.72 8.32 49.79 7.39 48.86 6.51 47.98 1 42.47 1 57.11 6.51 51.59 7.39 50.72"/><polygon class="cls-2" points="7.39 48.86 8.32 49.79 1 42.47 6.51 47.98 7.39 48.86"/><polygon class="cls-2" points="7.39 50.72 6.51 51.59 1 57.11 8.32 49.79 7.39 50.72"/></svg>