<svg id="Layer_1" data-name="Layer 1" xmlns="http://www.w3.org/2000/svg" viewBox="0 0 500 480"><defs><style>.cls-1{fill:none;}.cls-2{fill:#fff;}</style></defs><polygon class="cls-1" points="237.61 216.91 246.84 207.67 408.1 46.42 421.16 33.36 402.69 33.36 308.72 33.36 290.25 33.36 277.18 46.42 181.39 142.22 172.15 151.45 181.39 160.69 228.37 207.67 237.61 216.91"/><path class="cls-2" d="M467.35,446.64l-13.07-13.06L269.94,249.24l-13.86,13.85-9.24,9.24L408.1,433.58l13.06,13.06H290.25l-13.06-13.06-95.8-95.79-9.24-9.24,9.24-9.24,47-47,9.24-9.24,9.23-9.23L260.7,240l9.24-9.24L454.28,46.42l13.07-13.06,13.06-13.07L500,.7H276.73l-19.6,19.59L244.07,33.36,231,46.42l-60.07,60.07-13.06,13.06V.7H0V202.59L37.41,240,0,277.41V479.3H157.88V378.93l-19.59-19.6-13.06-13.06V446.64H32.65V291l18.63-18.62,9.23-9.24,13.86-13.85L83.6,240l9.24-9.24,47-47-9.23-9.23-13.86-13.86-47,47-9.24,9.24-9.23-9.24L32.65,189.05V33.36h92.58V150.72l.74.74,13.85,13.85,9.24,9.23,8.82,8.83.41.41,47,47,9.23,9.24-9.23,9.24-47,47-.41.41-8.82,8.83-9.24-9.24-47-47-9.24,9.23L69.75,272.33l47,47,8.49,8.49.74.74,12.32,12.32,19.59,19.59,13.06,13.06L231,433.58l13.06,13.06,13.07,13.07,19.59,19.59H500l-19.59-19.59Zm-286-285.95-9.24-9.24,9.24-9.24,95.79-95.79,13.07-13.06H421.16L408.1,46.42,246.84,207.67l-9.23,9.24-9.24-9.24Z"/><polygon class="cls-2" points="32.65 244.76 37.41 240 32.65 235.24 28.18 230.77 0 202.59 0 277.41 28.18 249.23 32.65 244.76"/><polygon class="cls-2" points="32.65 235.24 37.41 240 0 202.59 28.18 230.77 32.65 235.24"/><polygon class="cls-2" points="32.65 244.76 28.18 249.23 0 277.41 37.41 240 32.65 244.76"/></svg>